<svg xmlns="http://www.w3.org/2000/svg" width="29" height="29" viewBox="0 0 29 29">
    <g>
        <g>
            <g/>
            <g>
                <path fill="#fff" d="M29 15c0 7.732-6.268 14-14 14S1 22.732 1 15 7.268 1 15 1s14 6.268 14 14z"/>
            </g>
            <g>
                <path fill="#84f8ff"
                      d="M16.115 13.47l-1.993-.443c-.759-.173-1.632-.401-1.632-1.116 0-.717.612-1.218 1.718-1.218 2.228 0 2.025 1.532 3.131 1.532.582 0 1.092-.343 1.092-.931 0-1.373-2.198-2.404-4.063-2.404-2.024 0-4.18.86-4.18 3.149 0 1.102.395 2.275 2.564 2.82l2.694.672c.815.2 1.02.66 1.02 1.073 0 .688-.684 1.36-1.922 1.36-2.419 0-2.083-1.86-3.38-1.86-.581 0-1.004.4-1.004.973 0 1.116 1.355 2.605 4.384 2.605 2.882 0 4.31-1.389 4.31-3.25 0-1.2-.554-2.476-2.739-2.963z"/>
            </g>
            <g>
                <path fill="#84f8ff"
                      d="M29 14.5C29 22.507 22.507 29 14.5 29S0 22.507 0 14.5 6.493 0 14.5 0 29 6.493 29 14.5zm-5.472 3.96c0-.862-.222-1.708-.64-2.456a8.58 8.58 0 0 0 .143-1.546 8.49 8.49 0 0 0-2.498-6.029 8.496 8.496 0 0 0-6.028-2.496c-.542 0-1.086.05-1.614.152h-.004a5.054 5.054 0 0 0-2.367-.59 5.014 5.014 0 0 0-3.57 1.478 5.041 5.041 0 0 0-.843 6.016 8.588 8.588 0 0 0-.128 1.47 8.487 8.487 0 0 0 2.497 6.028 8.476 8.476 0 0 0 2.71 1.826 8.457 8.457 0 0 0 3.32.671c.5 0 1.002-.045 1.492-.132.755.427 1.61.654 2.483.654a5.01 5.01 0 0 0 3.568-1.478 5.013 5.013 0 0 0 1.479-3.569z"/>
            </g>
        </g>
    </g>
</svg>
