<svg xmlns="http://www.w3.org/2000/svg" width="16" height="16" viewBox="0 0 16 16"><g><g><path fill="#fff" d="M2.31.81C1.21.81.49 1.532.49 2.482c0 .928.698 1.67 1.777 1.67h.02c1.122 0 1.82-.742 1.82-1.67C4.087 1.532 3.41.81 2.31.81z"/></g><g><path fill="#fff" d="M.68 5.48h3.216v9.674H.68z"/></g><g><path fill="#fff" d="M11.793 5.25c-1.734 0-2.897 1.63-2.897 1.63V5.477H5.68v9.674h3.215V9.75c0-.29.021-.578.106-.785.233-.578.762-1.176 1.65-1.176 1.164 0 1.629.887 1.629 2.188v5.175h3.215V9.604c0-2.971-1.586-4.354-3.702-4.354z"/></g></g></svg>