<svg width="153" height="25" viewBox="0 0 153 25" fill="none" xmlns="http://www.w3.org/2000/svg">
<path d="M8.77778 1.10889C6.25185 1.10889 4.98889 3.54518 4.98889 8.41778V10.3489C4.98889 12.663 5.32296 14.48 5.99111 15.8C6.65926 17.1037 7.64519 17.7556 8.94889 17.7556C10.7415 17.7556 12.3874 16.0119 13.8867 12.5244H14.3267L14.1556 17.9756H13.8867C13.7889 17.7963 13.6993 17.6741 13.6178 17.6089C13.5363 17.5274 13.4141 17.4867 13.2511 17.4867C13.1044 17.4867 12.5178 17.617 11.4911 17.8778C10.4644 18.1222 9.42148 18.2444 8.36222 18.2444C5.70593 18.2444 3.64445 17.5274 2.17778 16.0933C0.727408 14.6593 0.00222234 12.5081 0.00222234 9.64C0.00222234 6.75555 0.76 4.53111 2.27556 2.96667C3.80741 1.40222 5.86074 0.619998 8.43556 0.619998C9.42963 0.619998 10.3993 0.750368 11.3444 1.01111C12.3059 1.25555 12.8681 1.37778 13.0311 1.37778C13.1941 1.37778 13.3163 1.34518 13.3978 1.28C13.4793 1.19852 13.5689 1.06815 13.6667 0.888886H13.9356L14.1311 6.19333H13.6911C12.9578 4.54741 12.2 3.29259 11.4178 2.42889C10.6519 1.54889 9.77185 1.10889 8.77778 1.10889ZM24.2861 7.04889C23.6831 7.04889 23.1535 7.44 22.6972 8.22222C22.2409 9.00444 22.0127 9.93333 22.0127 11.0089V17.56H23.7483V18H16.1216V17.56H17.4661V6.80444H16.1216V6.36444H22.0127V8.71111C22.2246 7.88 22.632 7.24444 23.235 6.80444C23.8379 6.34815 24.5224 6.12 25.2883 6.12C26.0542 6.12 26.6735 6.34 27.1461 6.78C27.635 7.2037 27.8794 7.81481 27.8794 8.61333C27.8794 9.39555 27.7001 9.99852 27.3416 10.4222C26.9831 10.8459 26.429 11.0578 25.6794 11.0578C24.9461 11.0578 24.4001 10.8133 24.0416 10.3244C23.6994 9.83555 23.6587 9.15926 23.9194 8.29555H24.7994C25.2068 7.46444 25.0357 7.04889 24.2861 7.04889ZM34.534 18.2444C32.4318 18.2444 30.8511 17.7067 29.7918 16.6311C28.7488 15.5393 28.2273 14.0319 28.2273 12.1089C28.2273 10.1696 28.814 8.68667 29.9873 7.66C31.177 6.63333 32.6844 6.12 34.5096 6.12C38.2088 6.12 39.9851 7.97778 39.8385 11.6933H32.9451V12.6467C32.9451 14.2437 33.1488 15.4496 33.5562 16.2644C33.9636 17.0793 34.6725 17.4867 35.6829 17.4867C37.5733 17.4867 38.8118 16.4763 39.3985 14.4556L39.8385 14.5289C39.5288 15.7022 38.9666 16.6148 38.1518 17.2667C37.3533 17.9185 36.1473 18.2444 34.534 18.2444ZM32.9696 11.2044H35.4873V10.0067C35.4873 8.68667 35.4059 7.79037 35.2429 7.31778C35.0962 6.82889 34.7866 6.58444 34.314 6.58444C33.8577 6.58444 33.5155 6.84518 33.2873 7.36666C33.0755 7.87185 32.9696 8.75185 32.9696 10.0067V11.2044ZM46.576 12.2556H47.2848V10.3733C47.2848 8.82518 47.1952 7.79037 47.016 7.26889C46.853 6.73111 46.5271 6.46222 46.0382 6.46222C45.7448 6.46222 45.476 6.5437 45.2315 6.70667C45.0034 6.85333 44.8893 7.06518 44.8893 7.34222C44.8893 7.60296 44.9382 7.87185 45.036 8.14889H45.6471C45.7774 8.49111 45.8426 8.90667 45.8426 9.39555C45.8426 9.86815 45.6389 10.2837 45.2315 10.6422C44.8241 10.9844 44.3108 11.1556 43.6915 11.1556C42.29 11.1556 41.5893 10.4793 41.5893 9.12667C41.5893 7.12222 43.2923 6.12 46.6982 6.12C48.6374 6.12 49.9737 6.45407 50.7071 7.12222C51.4567 7.77407 51.8315 8.98 51.8315 10.74V15.7022C51.8315 16.5496 52.0678 16.9733 52.5404 16.9733C53.0945 16.9733 53.4204 16.1341 53.5182 14.4556L53.8848 14.48C53.8197 15.9141 53.5508 16.9 53.0782 17.4378C52.6056 17.9756 51.8315 18.2444 50.756 18.2444C48.8004 18.2444 47.676 17.6415 47.3826 16.4356C47.1708 17.0548 46.853 17.5111 46.4293 17.8044C46.0056 18.0978 45.3863 18.2444 44.5715 18.2444C42.1597 18.2444 40.9537 17.2585 40.9537 15.2867C40.9537 14.1296 41.41 13.3393 42.3226 12.9156C43.2515 12.4756 44.6693 12.2556 46.576 12.2556ZM45.5982 15.2622C45.5982 16.1096 45.6389 16.6556 45.7204 16.9C45.8182 17.1444 45.9893 17.2667 46.2337 17.2667C46.4945 17.2667 46.7308 17.063 46.9426 16.6556C47.1708 16.2319 47.2848 15.6533 47.2848 14.92V12.6467H47.1137C46.1034 12.6467 45.5982 13.3881 45.5982 14.8711V15.2622ZM54.9892 14.5044V6.80444H53.6448V6.36444H54.9892V3.21111L59.5359 2.08666V6.36444H62.7137V6.80444H59.5359V15.0422C59.5359 15.8081 59.6092 16.3704 59.7559 16.7289C59.9189 17.0874 60.2448 17.2667 60.7337 17.2667C61.2226 17.2667 61.6463 17.0222 62.0048 16.5333C62.3796 16.0444 62.6241 15.3763 62.7381 14.5289L63.1537 14.5778C63.0233 15.7022 62.6648 16.5985 62.0781 17.2667C61.4915 17.9185 60.5218 18.2444 59.1692 18.2444C57.8166 18.2444 56.7818 17.9756 56.0648 17.4378C55.3478 16.9 54.9892 15.9222 54.9892 14.5044ZM66.9806 4.67778C66.1169 4.67778 65.4976 4.45778 65.1228 4.01778C64.7643 3.57778 64.585 3.03185 64.585 2.38C64.585 1.72815 64.7806 1.19037 65.1717 0.766664C65.5791 0.342961 66.1902 0.131109 67.005 0.131109C67.8198 0.131109 68.4391 0.326665 68.8628 0.717776C69.2865 1.09259 69.4984 1.63852 69.4984 2.35555C69.4984 3.05629 69.2947 3.61852 68.8872 4.04222C68.4798 4.46592 67.8443 4.67778 66.9806 4.67778ZM63.2895 6.36444H69.2784V17.56H70.6472V18H63.3872V17.56H64.7317V6.80444H63.2895V6.36444ZM70.161 6.80444V6.36444H77.4699V6.80444H75.9299L78.8633 14.92L81.5033 6.80444H79.8655V6.36444H83.1655V6.80444H82.0899L78.4721 18H75.6855L71.1633 6.80444H70.161ZM89.2237 18.2444C87.1215 18.2444 85.5407 17.7067 84.4815 16.6311C83.4385 15.5393 82.917 14.0319 82.917 12.1089C82.917 10.1696 83.5037 8.68667 84.677 7.66C85.8667 6.63333 87.3741 6.12 89.1992 6.12C92.8985 6.12 94.6748 7.97778 94.5281 11.6933H87.6348V12.6467C87.6348 14.2437 87.8385 15.4496 88.2459 16.2644C88.6533 17.0793 89.3622 17.4867 90.3726 17.4867C92.2629 17.4867 93.5015 16.4763 94.0881 14.4556L94.5281 14.5289C94.2185 15.7022 93.6563 16.6148 92.8415 17.2667C92.0429 17.9185 90.837 18.2444 89.2237 18.2444ZM87.6592 11.2044H90.177V10.0067C90.177 8.68667 90.0955 7.79037 89.9326 7.31778C89.7859 6.82889 89.4763 6.58444 89.0037 6.58444C88.5474 6.58444 88.2052 6.84518 87.977 7.36666C87.7652 7.87185 87.6592 8.75185 87.6592 10.0067V11.2044ZM100.06 0.888886H108.86V1.42666H106.269V17.4622H107.149C108.534 17.4622 109.634 17.0385 110.449 16.1911C111.28 15.3437 112.119 14.04 112.967 12.28H113.48L113.016 18H100.06V17.4622H101.502V1.42666H100.06V0.888886ZM122.249 13.1844V11.1067C122.249 9.52593 122.159 8.37704 121.98 7.66C121.817 6.92667 121.426 6.56 120.806 6.56C120.448 6.56 120.154 6.66592 119.926 6.87778C119.714 7.07333 119.56 7.40741 119.462 7.88C119.315 8.61333 119.242 9.72963 119.242 11.2289V13.1356C119.242 14.9119 119.291 15.9793 119.389 16.3378C119.503 16.6963 119.617 16.9896 119.731 17.2178C119.91 17.6089 120.26 17.8044 120.782 17.8044C121.417 17.8044 121.833 17.4378 122.029 16.7044C122.175 16.183 122.249 15.0096 122.249 13.1844ZM120.733 18.2444C118.696 18.2444 117.156 17.723 116.113 16.68C115.07 15.637 114.549 14.1459 114.549 12.2067C114.549 10.2511 115.103 8.75185 116.211 7.70889C117.335 6.64963 118.908 6.12 120.929 6.12C122.949 6.12 124.457 6.60889 125.451 7.58667C126.445 8.54815 126.942 10.023 126.942 12.0111C126.942 16.1667 124.872 18.2444 120.733 18.2444ZM137.428 5.09333L138.112 4.67778C138.21 4.17259 138.014 3.92 137.526 3.92C136.825 3.92 136.474 4.45778 136.474 5.53333C136.474 5.95704 136.531 6.44592 136.646 7C137.884 7.83111 138.503 8.89852 138.503 10.2022C138.503 11.4896 138.055 12.4919 137.159 13.2089C136.263 13.9259 135.048 14.2844 133.517 14.2844C132.881 14.2844 132.221 14.2193 131.537 14.0889C130.82 14.5452 130.461 14.8874 130.461 15.1156C130.461 15.3437 130.983 15.4578 132.026 15.4578H134.519C138.218 15.4578 140.068 16.7859 140.068 19.4422C140.068 20.8763 139.506 22.0089 138.381 22.84C137.273 23.6874 135.537 24.1111 133.174 24.1111C129.149 24.1111 127.137 23.2393 127.137 21.4956C127.137 20.5504 127.764 19.8985 129.019 19.54L130.486 20.2C130.355 20.6726 130.29 21.1207 130.29 21.5444C130.29 22.9459 131.333 23.6467 133.419 23.6467C134.69 23.6467 135.668 23.4104 136.352 22.9378C137.037 22.4652 137.379 21.8785 137.379 21.1778C137.379 20.477 137.167 20.0044 136.743 19.76C136.336 19.5319 135.513 19.4178 134.274 19.4178H131.903C130.583 19.4178 129.638 19.1978 129.068 18.7578C128.497 18.3178 128.212 17.78 128.212 17.1444C128.212 16.4926 128.416 15.9548 128.823 15.5311C129.231 15.0911 129.956 14.5533 130.999 13.9178C129.108 13.38 128.163 12.1415 128.163 10.2022C128.163 8.98 128.603 7.99407 129.483 7.24444C130.363 6.49481 131.683 6.12 133.443 6.12C134.503 6.12 135.407 6.3237 136.157 6.73111C136.059 6.29111 136.01 5.89185 136.01 5.53333C136.01 4.62074 136.254 3.96074 136.743 3.55333C137.232 3.14592 137.778 2.94222 138.381 2.94222C138.984 2.94222 139.465 3.10518 139.823 3.43111C140.198 3.74074 140.386 4.17259 140.386 4.72666C140.386 5.28074 140.239 5.6963 139.946 5.97333C139.652 6.23407 139.294 6.36444 138.87 6.36444C138.463 6.36444 138.12 6.25852 137.843 6.04667C137.583 5.81852 137.444 5.50074 137.428 5.09333ZM132.246 9.66444V10.9844C132.246 12.0763 132.335 12.8178 132.514 13.2089C132.71 13.6 132.995 13.7956 133.37 13.7956C133.761 13.7956 134.038 13.6081 134.201 13.2333C134.38 12.8422 134.47 12.0519 134.47 10.8622V9.66444C134.47 8.39333 134.388 7.56222 134.226 7.17111C134.063 6.7637 133.786 6.56 133.394 6.56C133.02 6.56 132.734 6.77185 132.539 7.19555C132.343 7.60296 132.246 8.42592 132.246 9.66444ZM147.552 13.1844V11.1067C147.552 9.52593 147.463 8.37704 147.283 7.66C147.12 6.92667 146.729 6.56 146.11 6.56C145.752 6.56 145.458 6.66592 145.23 6.87778C145.018 7.07333 144.863 7.40741 144.766 7.88C144.619 8.61333 144.546 9.72963 144.546 11.2289V13.1356C144.546 14.9119 144.595 15.9793 144.692 16.3378C144.806 16.6963 144.92 16.9896 145.035 17.2178C145.214 17.6089 145.564 17.8044 146.086 17.8044C146.721 17.8044 147.137 17.4378 147.332 16.7044C147.479 16.183 147.552 15.0096 147.552 13.1844ZM146.037 18.2444C144 18.2444 142.46 17.723 141.417 16.68C140.374 15.637 139.852 14.1459 139.852 12.2067C139.852 10.2511 140.406 8.75185 141.515 7.70889C142.639 6.64963 144.212 6.12 146.232 6.12C148.253 6.12 149.76 6.60889 150.755 7.58667C151.749 8.54815 152.246 10.023 152.246 12.0111C152.246 16.1667 150.176 18.2444 146.037 18.2444Z" fill="#514F7E"/>
</svg>
