<svg width="250" height="40" viewBox="0 0 250 40" fill="none" xmlns="http://www.w3.org/2000/svg">
<path d="M15 2.36C10.8667 2.36 8.8 6.34667 8.8 14.32V17.48C8.8 21.2667 9.34667 24.24 10.44 26.4C11.5333 28.5333 13.1467 29.6 15.28 29.6C18.2133 29.6 20.9067 26.7467 23.36 21.04H24.08L23.8 29.96H23.36C23.2 29.6667 23.0533 29.4667 22.92 29.36C22.7867 29.2267 22.5867 29.16 22.32 29.16C22.08 29.16 21.12 29.3733 19.44 29.8C17.76 30.2 16.0533 30.4 14.32 30.4C9.97333 30.4 6.6 29.2267 4.2 26.88C1.82667 24.5333 0.64 21.0133 0.64 16.32C0.64 11.6 1.88 7.96 4.36 5.4C6.86667 2.84 10.2267 1.56 14.44 1.56C16.0667 1.56 17.6533 1.77333 19.2 2.2C20.7733 2.6 21.6933 2.8 21.96 2.8C22.2267 2.8 22.4267 2.74667 22.56 2.64C22.6933 2.50667 22.84 2.29333 23 2H23.44L23.76 10.68H23.04C21.84 7.98667 20.6 5.93333 19.32 4.52C18.0667 3.08 16.6267 2.36 15 2.36ZM40.3772 12.08C39.3905 12.08 38.5239 12.72 37.7772 14C37.0305 15.28 36.6572 16.8 36.6572 18.56V29.28H39.4972V30H27.0172V29.28H29.2172V11.68H27.0172V10.96H36.6572V14.8C37.0039 13.44 37.6705 12.4 38.6572 11.68C39.6439 10.9333 40.7639 10.56 42.0172 10.56C43.2705 10.56 44.2839 10.92 45.0572 11.64C45.8572 12.3333 46.2572 13.3333 46.2572 14.64C46.2572 15.92 45.9639 16.9067 45.3772 17.6C44.7905 18.2933 43.8839 18.64 42.6572 18.64C41.4572 18.64 40.5639 18.24 39.9772 17.44C39.4172 16.64 39.3505 15.5333 39.7772 14.12H41.2172C41.8839 12.76 41.6039 12.08 40.3772 12.08ZM57.1466 30.4C53.7066 30.4 51.1199 29.52 49.3866 27.76C47.6799 25.9733 46.8266 23.5067 46.8266 20.36C46.8266 17.1867 47.7866 14.76 49.7066 13.08C51.6532 11.4 54.1199 10.56 57.1066 10.56C63.1599 10.56 66.0666 13.6 65.8266 19.68H54.5466V21.24C54.5466 23.8533 54.8799 25.8267 55.5466 27.16C56.2132 28.4933 57.3732 29.16 59.0266 29.16C62.1199 29.16 64.1466 27.5067 65.1066 24.2L65.8266 24.32C65.3199 26.24 64.3999 27.7333 63.0666 28.8C61.7599 29.8667 59.7866 30.4 57.1466 30.4ZM54.5866 18.88H58.7066V16.92C58.7066 14.76 58.5732 13.2933 58.3066 12.52C58.0666 11.72 57.5599 11.32 56.7866 11.32C56.0399 11.32 55.4799 11.7467 55.1066 12.6C54.7599 13.4267 54.5866 14.8667 54.5866 16.92V18.88ZM76.8516 20.6H78.0116V17.52C78.0116 14.9867 77.8649 13.2933 77.5716 12.44C77.3049 11.56 76.7716 11.12 75.9716 11.12C75.4916 11.12 75.0516 11.2533 74.6516 11.52C74.2782 11.76 74.0916 12.1067 74.0916 12.56C74.0916 12.9867 74.1716 13.4267 74.3316 13.88H75.3316C75.5449 14.44 75.6516 15.12 75.6516 15.92C75.6516 16.6933 75.3182 17.3733 74.6516 17.96C73.9849 18.52 73.1449 18.8 72.1316 18.8C69.8382 18.8 68.6916 17.6933 68.6916 15.48C68.6916 12.2 71.4782 10.56 77.0516 10.56C80.2249 10.56 82.4116 11.1067 83.6116 12.2C84.8382 13.2667 85.4516 15.24 85.4516 18.12V26.24C85.4516 27.6267 85.8382 28.32 86.6116 28.32C87.5182 28.32 88.0516 26.9467 88.2116 24.2L88.8116 24.24C88.7049 26.5867 88.2649 28.2 87.4916 29.08C86.7182 29.96 85.4516 30.4 83.6916 30.4C80.4916 30.4 78.6516 29.4133 78.1716 27.44C77.8249 28.4533 77.3049 29.2 76.6116 29.68C75.9182 30.16 74.9049 30.4 73.5716 30.4C69.6249 30.4 67.6516 28.7867 67.6516 25.56C67.6516 23.6667 68.3982 22.3733 69.8916 21.68C71.4116 20.96 73.7316 20.6 76.8516 20.6ZM75.2516 25.52C75.2516 26.9067 75.3182 27.8 75.4516 28.2C75.6116 28.6 75.8916 28.8 76.2916 28.8C76.7182 28.8 77.1049 28.4667 77.4516 27.8C77.8249 27.1067 78.0116 26.16 78.0116 24.96V21.24H77.7316C76.0782 21.24 75.2516 22.4533 75.2516 24.88V25.52ZM90.6188 24.28V11.68H88.4188V10.96H90.6188V5.8L98.0588 3.96V10.96H103.259V11.68H98.0588V25.16C98.0588 26.4133 98.1788 27.3333 98.4188 27.92C98.6854 28.5067 99.2188 28.8 100.019 28.8C100.819 28.8 101.512 28.4 102.099 27.6C102.712 26.8 103.112 25.7067 103.299 24.32L103.979 24.4C103.765 26.24 103.179 27.7067 102.219 28.8C101.259 29.8667 99.6721 30.4 97.4588 30.4C95.2454 30.4 93.5521 29.96 92.3788 29.08C91.2054 28.2 90.6188 26.6 90.6188 24.28ZM110.241 8.2C108.828 8.2 107.814 7.84 107.201 7.12C106.614 6.4 106.321 5.50666 106.321 4.44C106.321 3.37333 106.641 2.49333 107.281 1.8C107.948 1.10667 108.948 0.76 110.281 0.76C111.614 0.76 112.628 1.08 113.321 1.72C114.014 2.33333 114.361 3.22667 114.361 4.4C114.361 5.54667 114.028 6.46667 113.361 7.16C112.694 7.85333 111.654 8.2 110.241 8.2ZM104.201 10.96H114.001V29.28H116.241V30H104.361V29.28H106.561V11.68H104.201V10.96ZM115.445 11.68V10.96H127.405V11.68H124.885L129.685 24.96L134.005 11.68H131.325V10.96H136.725V11.68H134.965L129.045 30H124.485L117.085 11.68H115.445ZM146.639 30.4C143.199 30.4 140.612 29.52 138.879 27.76C137.172 25.9733 136.319 23.5067 136.319 20.36C136.319 17.1867 137.279 14.76 139.199 13.08C141.145 11.4 143.612 10.56 146.599 10.56C152.652 10.56 155.559 13.6 155.319 19.68H144.039V21.24C144.039 23.8533 144.372 25.8267 145.039 27.16C145.705 28.4933 146.865 29.16 148.519 29.16C151.612 29.16 153.639 27.5067 154.599 24.2L155.319 24.32C154.812 26.24 153.892 27.7333 152.559 28.8C151.252 29.8667 149.279 30.4 146.639 30.4ZM144.079 18.88H148.199V16.92C148.199 14.76 148.065 13.2933 147.799 12.52C147.559 11.72 147.052 11.32 146.279 11.32C145.532 11.32 144.972 11.7467 144.599 12.6C144.252 13.4267 144.079 14.8667 144.079 16.92V18.88ZM164.371 2H178.771V2.88H174.531V29.12H175.971C178.238 29.12 180.038 28.4267 181.371 27.04C182.731 25.6533 184.105 23.52 185.491 20.64H186.331L185.571 30H164.371V29.12H166.731V2.88H164.371V2ZM200.679 22.12V18.72C200.679 16.1333 200.533 14.2533 200.239 13.08C199.973 11.88 199.333 11.28 198.319 11.28C197.733 11.28 197.253 11.4533 196.879 11.8C196.533 12.12 196.279 12.6667 196.119 13.44C195.879 14.64 195.759 16.4667 195.759 18.92V22.04C195.759 24.9467 195.839 26.6933 195.999 27.28C196.186 27.8667 196.373 28.3467 196.559 28.72C196.853 29.36 197.426 29.68 198.279 29.68C199.319 29.68 199.999 29.08 200.319 27.88C200.559 27.0267 200.679 25.1067 200.679 22.12ZM198.199 30.4C194.866 30.4 192.346 29.5467 190.639 27.84C188.933 26.1333 188.079 23.6933 188.079 20.52C188.079 17.32 188.986 14.8667 190.799 13.16C192.639 11.4267 195.213 10.56 198.519 10.56C201.826 10.56 204.293 11.36 205.919 12.96C207.546 14.5333 208.359 16.9467 208.359 20.2C208.359 27 204.973 30.4 198.199 30.4ZM225.518 8.88L226.638 8.2C226.798 7.37333 226.478 6.96 225.678 6.96C224.531 6.96 223.958 7.84 223.958 9.6C223.958 10.2933 224.051 11.0933 224.238 12C226.265 13.36 227.278 15.1067 227.278 17.24C227.278 19.3467 226.545 20.9867 225.078 22.16C223.611 23.3333 221.625 23.92 219.118 23.92C218.078 23.92 216.998 23.8133 215.878 23.6C214.705 24.3467 214.118 24.9067 214.118 25.28C214.118 25.6533 214.971 25.84 216.678 25.84H220.758C226.811 25.84 229.838 28.0133 229.838 32.36C229.838 34.7067 228.918 36.56 227.078 37.92C225.265 39.3067 222.425 40 218.558 40C211.971 40 208.678 38.5733 208.678 35.72C208.678 34.1733 209.705 33.1067 211.758 32.52L214.158 33.6C213.945 34.3733 213.838 35.1067 213.838 35.8C213.838 38.0933 215.545 39.24 218.958 39.24C221.038 39.24 222.638 38.8533 223.758 38.08C224.878 37.3067 225.438 36.3467 225.438 35.2C225.438 34.0533 225.091 33.28 224.398 32.88C223.731 32.5067 222.385 32.32 220.358 32.32H216.478C214.318 32.32 212.771 31.96 211.838 31.24C210.905 30.52 210.438 29.64 210.438 28.6C210.438 27.5333 210.771 26.6533 211.438 25.96C212.105 25.24 213.291 24.36 214.998 23.32C211.905 22.44 210.358 20.4133 210.358 17.24C210.358 15.24 211.078 13.6267 212.518 12.4C213.958 11.1733 216.118 10.56 218.998 10.56C220.731 10.56 222.211 10.8933 223.438 11.56C223.278 10.84 223.198 10.1867 223.198 9.6C223.198 8.10666 223.598 7.02667 224.398 6.36C225.198 5.69333 226.091 5.36 227.078 5.36C228.065 5.36 228.851 5.62666 229.438 6.16C230.051 6.66667 230.358 7.37333 230.358 8.28C230.358 9.18667 230.118 9.86667 229.638 10.32C229.158 10.7467 228.571 10.96 227.878 10.96C227.211 10.96 226.651 10.7867 226.198 10.44C225.771 10.0667 225.545 9.54667 225.518 8.88ZM217.038 16.36V18.52C217.038 20.3067 217.185 21.52 217.478 22.16C217.798 22.8 218.265 23.12 218.878 23.12C219.518 23.12 219.971 22.8133 220.238 22.2C220.531 21.56 220.678 20.2667 220.678 18.32V16.36C220.678 14.28 220.545 12.92 220.278 12.28C220.011 11.6133 219.558 11.28 218.918 11.28C218.305 11.28 217.838 11.6267 217.518 12.32C217.198 12.9867 217.038 14.3333 217.038 16.36ZM242.086 22.12V18.72C242.086 16.1333 241.939 14.2533 241.646 13.08C241.379 11.88 240.739 11.28 239.726 11.28C239.139 11.28 238.659 11.4533 238.286 11.8C237.939 12.12 237.686 12.6667 237.526 13.44C237.286 14.64 237.166 16.4667 237.166 18.92V22.04C237.166 24.9467 237.246 26.6933 237.406 27.28C237.592 27.8667 237.779 28.3467 237.966 28.72C238.259 29.36 238.832 29.68 239.686 29.68C240.726 29.68 241.406 29.08 241.726 27.88C241.966 27.0267 242.086 25.1067 242.086 22.12ZM239.606 30.4C236.272 30.4 233.752 29.5467 232.046 27.84C230.339 26.1333 229.486 23.6933 229.486 20.52C229.486 17.32 230.392 14.8667 232.206 13.16C234.046 11.4267 236.619 10.56 239.926 10.56C243.232 10.56 245.699 11.36 247.326 12.96C248.952 14.5333 249.766 16.9467 249.766 20.2C249.766 27 246.379 30.4 239.606 30.4Z" fill="#514F7E"/>
</svg>
