<svg xmlns="http://www.w3.org/2000/svg" width="16" height="16" viewBox="0 0 16 16"><g><g><g/><g><path fill="#f0f0f0" d="M8 16A8 8 0 1 1 8 0a8 8 0 0 1 0 16z"/></g><g><g><path fill="#0052b4" d="M14.346 3.13a7.97 7.97 0 0 1 1.378 2.783h-4.161z"/></g><g><path fill="#0052b4" d="M.276 5.913A7.971 7.971 0 0 1 1.654 3.13l2.783 2.784z"/></g><g><path fill="#0052b4" d="M15.724 10.087a7.972 7.972 0 0 1-1.378 2.784l-2.783-2.784z"/></g><g><path fill="#0052b4" d="M3.13 1.654A7.971 7.971 0 0 1 5.912.276v4.161z"/></g><g><path fill="#0052b4" d="M12.87 14.346a7.971 7.971 0 0 1-2.783 1.378v-4.161z"/></g><g><path fill="#0052b4" d="M10.087.276a7.972 7.972 0 0 1 2.784 1.378l-2.784 2.783z"/></g><g><path fill="#0052b4" d="M5.913 15.724a7.972 7.972 0 0 1-2.784-1.378l2.784-2.783z"/></g><g><path fill="#0052b4" d="M4.437 10.087l-2.783 2.784a7.971 7.971 0 0 1-1.378-2.784z"/></g></g><g><g><path fill="#d80027" d="M.068 6.957h6.888V.067a8.08 8.08 0 0 1 2.087 0v6.89h6.89a8.08 8.08 0 0 1 0 2.086h-6.89v6.89a8.074 8.074 0 0 1-2.086 0v-6.89H.067a8.074 8.074 0 0 1 0-2.086z"/></g><g><path fill="#d80027" d="M5.913 10.087l-3.57 3.57a8.023 8.023 0 0 1-.47-.514l3.056-3.056h.984z"/></g><g><path fill="#d80027" d="M10.087 10.087l3.57 3.57c-.164.164-.336.32-.514.47l-3.056-3.056z"/></g><g><path fill="#d80027" d="M10.087 5.913l3.57-3.57c.164.164.32.336.47.514l-3.056 3.056h-.984z"/></g><g><path fill="#d80027" d="M5.913 5.913l-3.57-3.57a8.01 8.01 0 0 1 .514-.47l3.056 3.056v.984z"/></g></g></g></g></svg>